<svg xmlns="http://www.w3.org/2000/svg" version="1.1" xmlns:xlink="http://www.w3.org/1999/xlink" xmlns:svgjs="http://svgjs.com/svgjs" width="1440" height="560" preserveAspectRatio="none" viewBox="0 0 1440 560"><g mask="url(&quot;#SvgjsMask1003&quot;)" fill="none"><path d="M263.19 291.61L328.14 329.11L328.14 404.11L263.19 441.61L198.24 404.11L198.24 329.11zM198.24 404.11L263.19 441.61L263.19 516.61L198.24 554.11L133.28 516.61L133.28 441.61zM328.14 404.11L393.1 441.61L393.1 516.61L328.14 554.11L263.19 516.61L263.19 441.61zM458.05 179.11L523.01 216.61L523.01 291.61L458.05 329.11L393.1 291.61L393.1 216.61zM847.77 404.11L912.73 441.61L912.73 516.61L847.77 554.11L782.82 516.61L782.82 441.61zM977.68 179.11L1042.64 216.61L1042.64 291.61L977.68 329.11L912.73 291.61L912.73 216.61zM1042.64 291.61L1107.59 329.11L1107.59 404.11L1042.64 441.61L977.68 404.11L977.68 329.11zM1107.59 -45.89L1172.54 -8.39L1172.54 66.61L1107.59 104.11L1042.64 66.61L1042.64 -8.39zM1107.59 404.11L1172.54 441.61L1172.54 516.61L1107.59 554.11L1042.64 516.61L1042.64 441.61zM1172.54 516.61L1237.5 554.11L1237.5 629.11L1172.54 666.61L1107.59 629.11L1107.59 554.11zM1367.4 -45.89L1432.36 -8.39L1432.36 66.61L1367.4 104.11L1302.45 66.61L1302.45 -8.39zM1367.4 179.11L1432.36 216.61L1432.36 291.61L1367.4 329.11L1302.45 291.61L1302.45 216.61zM1497.31 -45.89L1562.27 -8.39L1562.27 66.61L1497.31 104.11L1432.36 66.61L1432.36 -8.39z" stroke="rgba(43, 220, 156, 1)" stroke-width="2"></path><path d="M255.69 291.61 a7.5 7.5 0 1 0 15 0 a7.5 7.5 0 1 0 -15 0zM320.64 329.11 a7.5 7.5 0 1 0 15 0 a7.5 7.5 0 1 0 -15 0zM320.64 404.11 a7.5 7.5 0 1 0 15 0 a7.5 7.5 0 1 0 -15 0zM255.69 441.61 a7.5 7.5 0 1 0 15 0 a7.5 7.5 0 1 0 -15 0zM190.74 404.11 a7.5 7.5 0 1 0 15 0 a7.5 7.5 0 1 0 -15 0zM190.74 329.11 a7.5 7.5 0 1 0 15 0 a7.5 7.5 0 1 0 -15 0zM255.69 516.61 a7.5 7.5 0 1 0 15 0 a7.5 7.5 0 1 0 -15 0zM190.74 554.11 a7.5 7.5 0 1 0 15 0 a7.5 7.5 0 1 0 -15 0zM125.78 516.61 a7.5 7.5 0 1 0 15 0 a7.5 7.5 0 1 0 -15 0zM125.78 441.61 a7.5 7.5 0 1 0 15 0 a7.5 7.5 0 1 0 -15 0zM385.6 441.61 a7.5 7.5 0 1 0 15 0 a7.5 7.5 0 1 0 -15 0zM385.6 516.61 a7.5 7.5 0 1 0 15 0 a7.5 7.5 0 1 0 -15 0zM320.64 554.11 a7.5 7.5 0 1 0 15 0 a7.5 7.5 0 1 0 -15 0zM450.55 179.11 a7.5 7.5 0 1 0 15 0 a7.5 7.5 0 1 0 -15 0zM515.51 216.61 a7.5 7.5 0 1 0 15 0 a7.5 7.5 0 1 0 -15 0zM515.51 291.61 a7.5 7.5 0 1 0 15 0 a7.5 7.5 0 1 0 -15 0zM450.55 329.11 a7.5 7.5 0 1 0 15 0 a7.5 7.5 0 1 0 -15 0zM385.6 291.61 a7.5 7.5 0 1 0 15 0 a7.5 7.5 0 1 0 -15 0zM385.6 216.61 a7.5 7.5 0 1 0 15 0 a7.5 7.5 0 1 0 -15 0zM840.27 404.11 a7.5 7.5 0 1 0 15 0 a7.5 7.5 0 1 0 -15 0zM905.23 441.61 a7.5 7.5 0 1 0 15 0 a7.5 7.5 0 1 0 -15 0zM905.23 516.61 a7.5 7.5 0 1 0 15 0 a7.5 7.5 0 1 0 -15 0zM840.27 554.11 a7.5 7.5 0 1 0 15 0 a7.5 7.5 0 1 0 -15 0zM775.32 516.61 a7.5 7.5 0 1 0 15 0 a7.5 7.5 0 1 0 -15 0zM775.32 441.61 a7.5 7.5 0 1 0 15 0 a7.5 7.5 0 1 0 -15 0zM970.18 179.11 a7.5 7.5 0 1 0 15 0 a7.5 7.5 0 1 0 -15 0zM1035.14 216.61 a7.5 7.5 0 1 0 15 0 a7.5 7.5 0 1 0 -15 0zM1035.14 291.61 a7.5 7.5 0 1 0 15 0 a7.5 7.5 0 1 0 -15 0zM970.18 329.11 a7.5 7.5 0 1 0 15 0 a7.5 7.5 0 1 0 -15 0zM905.23 291.61 a7.5 7.5 0 1 0 15 0 a7.5 7.5 0 1 0 -15 0zM905.23 216.61 a7.5 7.5 0 1 0 15 0 a7.5 7.5 0 1 0 -15 0zM1100.09 329.11 a7.5 7.5 0 1 0 15 0 a7.5 7.5 0 1 0 -15 0zM1100.09 404.11 a7.5 7.5 0 1 0 15 0 a7.5 7.5 0 1 0 -15 0zM1035.14 441.61 a7.5 7.5 0 1 0 15 0 a7.5 7.5 0 1 0 -15 0zM970.18 404.11 a7.5 7.5 0 1 0 15 0 a7.5 7.5 0 1 0 -15 0zM1100.09 -45.89 a7.5 7.5 0 1 0 15 0 a7.5 7.5 0 1 0 -15 0zM1165.04 -8.39 a7.5 7.5 0 1 0 15 0 a7.5 7.5 0 1 0 -15 0zM1165.04 66.61 a7.5 7.5 0 1 0 15 0 a7.5 7.5 0 1 0 -15 0zM1100.09 104.11 a7.5 7.5 0 1 0 15 0 a7.5 7.5 0 1 0 -15 0zM1035.14 66.61 a7.5 7.5 0 1 0 15 0 a7.5 7.5 0 1 0 -15 0zM1035.14 -8.39 a7.5 7.5 0 1 0 15 0 a7.5 7.5 0 1 0 -15 0zM1165.04 441.61 a7.5 7.5 0 1 0 15 0 a7.5 7.5 0 1 0 -15 0zM1165.04 516.61 a7.5 7.5 0 1 0 15 0 a7.5 7.5 0 1 0 -15 0zM1100.09 554.11 a7.5 7.5 0 1 0 15 0 a7.5 7.5 0 1 0 -15 0zM1035.14 516.61 a7.5 7.5 0 1 0 15 0 a7.5 7.5 0 1 0 -15 0zM1230 554.11 a7.5 7.5 0 1 0 15 0 a7.5 7.5 0 1 0 -15 0zM1230 629.11 a7.5 7.5 0 1 0 15 0 a7.5 7.5 0 1 0 -15 0zM1165.04 666.61 a7.5 7.5 0 1 0 15 0 a7.5 7.5 0 1 0 -15 0zM1100.09 629.11 a7.5 7.5 0 1 0 15 0 a7.5 7.5 0 1 0 -15 0zM1359.9 -45.89 a7.5 7.5 0 1 0 15 0 a7.5 7.5 0 1 0 -15 0zM1424.86 -8.39 a7.5 7.5 0 1 0 15 0 a7.5 7.5 0 1 0 -15 0zM1424.86 66.61 a7.5 7.5 0 1 0 15 0 a7.5 7.5 0 1 0 -15 0zM1359.9 104.11 a7.5 7.5 0 1 0 15 0 a7.5 7.5 0 1 0 -15 0zM1294.95 66.61 a7.5 7.5 0 1 0 15 0 a7.5 7.5 0 1 0 -15 0zM1294.95 -8.39 a7.5 7.5 0 1 0 15 0 a7.5 7.5 0 1 0 -15 0zM1359.9 179.11 a7.5 7.5 0 1 0 15 0 a7.5 7.5 0 1 0 -15 0zM1424.86 216.61 a7.5 7.5 0 1 0 15 0 a7.5 7.5 0 1 0 -15 0zM1424.86 291.61 a7.5 7.5 0 1 0 15 0 a7.5 7.5 0 1 0 -15 0zM1359.9 329.11 a7.5 7.5 0 1 0 15 0 a7.5 7.5 0 1 0 -15 0zM1294.95 291.61 a7.5 7.5 0 1 0 15 0 a7.5 7.5 0 1 0 -15 0zM1294.95 216.61 a7.5 7.5 0 1 0 15 0 a7.5 7.5 0 1 0 -15 0zM1489.81 -45.89 a7.5 7.5 0 1 0 15 0 a7.5 7.5 0 1 0 -15 0zM1554.77 -8.39 a7.5 7.5 0 1 0 15 0 a7.5 7.5 0 1 0 -15 0zM1554.77 66.61 a7.5 7.5 0 1 0 15 0 a7.5 7.5 0 1 0 -15 0zM1489.81 104.11 a7.5 7.5 0 1 0 15 0 a7.5 7.5 0 1 0 -15 0z" fill="rgba(43, 220, 156, 1)"></path><path d="M33.76 124.56L77.06 149.56L77.06 199.56L33.76 224.56L-9.54 199.56L-9.54 149.56zM77.06 349.56L120.37 374.56L120.37 424.56L77.06 449.56L33.76 424.56L33.76 374.56zM33.76 424.56L77.06 449.56L77.06 499.56L33.76 524.56L-9.54 499.56L-9.54 449.56zM120.37 -25.44L163.67 -0.44L163.67 49.56L120.37 74.56L77.06 49.56L77.06 -0.44zM163.67 49.56L206.97 74.56L206.97 124.56L163.67 149.56L120.37 124.56L120.37 74.56zM163.67 199.56L206.97 224.56L206.97 274.56L163.67 299.56L120.37 274.56L120.37 224.56zM120.37 274.56L163.67 299.56L163.67 349.56L120.37 374.56L77.06 349.56L77.06 299.56zM163.67 499.56L206.97 524.56L206.97 574.56L163.67 599.56L120.37 574.56L120.37 524.56zM250.27 49.56L293.57 74.56L293.57 124.56L250.27 149.56L206.97 124.56L206.97 74.56zM293.57 -25.44L336.88 -0.44L336.88 49.56L293.57 74.56L250.27 49.56L250.27 -0.44zM336.88 49.56L380.18 74.56L380.18 124.56L336.88 149.56L293.57 124.56L293.57 74.56zM293.57 124.56L336.88 149.56L336.88 199.56L293.57 224.56L250.27 199.56L250.27 149.56zM336.88 199.56L380.18 224.56L380.18 274.56L336.88 299.56L293.57 274.56L293.57 224.56zM336.88 349.56L380.18 374.56L380.18 424.56L336.88 449.56L293.57 424.56L293.57 374.56zM293.57 424.56L336.88 449.56L336.88 499.56L293.57 524.56L250.27 499.56L250.27 449.56zM336.88 499.56L380.18 524.56L380.18 574.56L336.88 599.56L293.57 574.56L293.57 524.56zM380.18 -25.44L423.48 -0.44L423.48 49.56L380.18 74.56L336.88 49.56L336.88 -0.44zM380.18 274.56L423.48 299.56L423.48 349.56L380.18 374.56L336.88 349.56L336.88 299.56zM423.48 499.56L466.79 524.56L466.79 574.56L423.48 599.56L380.18 574.56L380.18 524.56zM510.09 49.56L553.39 74.56L553.39 124.56L510.09 149.56L466.79 124.56L466.79 74.56zM466.79 424.56L510.09 449.56L510.09 499.56L466.79 524.56L423.48 499.56L423.48 449.56zM553.39 -25.44L596.69 -0.44L596.69 49.56L553.39 74.56L510.09 49.56L510.09 -0.44zM596.69 49.56L640 74.56L640 124.56L596.69 149.56L553.39 124.56L553.39 74.56zM553.39 424.56L596.69 449.56L596.69 499.56L553.39 524.56L510.09 499.56L510.09 449.56zM640 -25.44L683.3 -0.44L683.3 49.56L640 74.56L596.69 49.56L596.69 -0.44zM640 274.56L683.3 299.56L683.3 349.56L640 374.56L596.69 349.56L596.69 299.56zM683.3 349.56L726.6 374.56L726.6 424.56L683.3 449.56L640 424.56L640 374.56zM640 424.56L683.3 449.56L683.3 499.56L640 524.56L596.69 499.56L596.69 449.56zM683.3 499.56L726.6 524.56L726.6 574.56L683.3 599.56L640 574.56L640 524.56zM726.6 124.56L769.9 149.56L769.9 199.56L726.6 224.56L683.3 199.56L683.3 149.56zM726.6 424.56L769.9 449.56L769.9 499.56L726.6 524.56L683.3 499.56L683.3 449.56zM769.9 499.56L813.21 524.56L813.21 574.56L769.9 599.56L726.6 574.56L726.6 524.56zM813.21 124.56L856.51 149.56L856.51 199.56L813.21 224.56L769.9 199.56L769.9 149.56zM813.21 424.56L856.51 449.56L856.51 499.56L813.21 524.56L769.9 499.56L769.9 449.56zM943.11 49.56L986.42 74.56L986.42 124.56L943.11 149.56L899.81 124.56L899.81 74.56zM943.11 349.56L986.42 374.56L986.42 424.56L943.11 449.56L899.81 424.56L899.81 374.56zM899.81 424.56L943.11 449.56L943.11 499.56L899.81 524.56L856.51 499.56L856.51 449.56zM943.11 499.56L986.42 524.56L986.42 574.56L943.11 599.56L899.81 574.56L899.81 524.56zM1029.72 49.56L1073.02 74.56L1073.02 124.56L1029.72 149.56L986.42 124.56L986.42 74.56zM986.42 274.56L1029.72 299.56L1029.72 349.56L986.42 374.56L943.11 349.56L943.11 299.56zM1029.72 349.56L1073.02 374.56L1073.02 424.56L1029.72 449.56L986.42 424.56L986.42 374.56zM986.42 424.56L1029.72 449.56L1029.72 499.56L986.42 524.56L943.11 499.56L943.11 449.56zM1116.32 49.56L1159.63 74.56L1159.63 124.56L1116.32 149.56L1073.02 124.56L1073.02 74.56zM1159.63 -25.44L1202.93 -0.44L1202.93 49.56L1159.63 74.56L1116.32 49.56L1116.32 -0.44zM1159.63 424.56L1202.93 449.56L1202.93 499.56L1159.63 524.56L1116.32 499.56L1116.32 449.56zM1202.93 499.56L1246.23 524.56L1246.23 574.56L1202.93 599.56L1159.63 574.56L1159.63 524.56zM1289.53 49.56L1332.84 74.56L1332.84 124.56L1289.53 149.56L1246.23 124.56L1246.23 74.56zM1246.23 124.56L1289.53 149.56L1289.53 199.56L1246.23 224.56L1202.93 199.56L1202.93 149.56zM1289.53 349.56L1332.84 374.56L1332.84 424.56L1289.53 449.56L1246.23 424.56L1246.23 374.56zM1332.84 -25.44L1376.14 -0.44L1376.14 49.56L1332.84 74.56L1289.53 49.56L1289.53 -0.44zM1332.84 274.56L1376.14 299.56L1376.14 349.56L1332.84 374.56L1289.53 349.56L1289.53 299.56zM1376.14 349.56L1419.44 374.56L1419.44 424.56L1376.14 449.56L1332.84 424.56L1332.84 374.56zM1332.84 424.56L1376.14 449.56L1376.14 499.56L1332.84 524.56L1289.53 499.56L1289.53 449.56zM1376.14 499.56L1419.44 524.56L1419.44 574.56L1376.14 599.56L1332.84 574.56L1332.84 524.56zM1462.74 49.56L1506.05 74.56L1506.05 124.56L1462.74 149.56L1419.44 124.56L1419.44 74.56zM1462.74 199.56L1506.05 224.56L1506.05 274.56L1462.74 299.56L1419.44 274.56L1419.44 224.56zM1462.74 349.56L1506.05 374.56L1506.05 424.56L1462.74 449.56L1419.44 424.56L1419.44 374.56z" stroke="rgba(43, 220, 156, 1)" stroke-width="2"></path></g><defs><mask id="SvgjsMask1003"><rect width="1440" height="560" fill="#ffffff"></rect></mask></defs></svg>